<?xml version="1.0"?>
<svg xmlns="http://www.w3.org/2000/svg" fill="none" height="72" viewBox="0 0 259 72" width="259">
    
  
  <path d="M-0.0357361 0.00714111V72.0071H189.874C190.182 72.0071 197.174 71.8999 203.438 64.0707C209.844 56.0628 238.944 21.6715 246.359 12.8199C251.292 6.92829 255.053 3.74657 257.684 2.03058C257.713 2.00913 257.741 1.99483 257.77 1.97338C258.042 1.77318 258.22 1.45858 258.22 1.09393C258.22 0.493338 257.734 0.00714111 257.134 0.00714111H-0.0357361Z" fill="#DC4405"></path>
    
  
  <mask height="73" id="mask0_3432_573" maskUnits="userSpaceOnUse" style="mask-type:luminance" width="260" x="-1" y="0">
        
    
    <path d="M-0.0357361 0.00714111V72.0071H189.874C190.182 72.0071 197.174 71.8999 203.438 64.0707C209.844 56.0628 238.944 21.6715 246.359 12.8199C251.292 6.92829 255.053 3.74657 257.684 2.03058C257.713 2.00913 257.741 1.99483 257.77 1.97338C258.042 1.77318 258.22 1.45858 258.22 1.09393C258.22 0.493338 257.734 0.00714111 257.134 0.00714111H-0.0357361Z" fill="white"></path>
        
  
  </mask>
    
  
  <g mask="url(#mask0_3432_573)">
        
    
    <path d="M258.213 0.00714111H-80.7158V72.0071H258.213V0.00714111Z" fill="#DC4405"></path>
        
  
  </g>
    
  
  <path d="M64.1637 26.3833L63.8705 24.9533L63.6989 24.1311L62.4977 18.3539L62.2046 16.9239C62.0902 16.3734 61.5325 15.9444 60.9605 15.973L55.5194 16.2304C54.9474 16.259 54.5756 16.7309 54.69 17.2814L55.3335 20.3702L56.9994 28.3996C57.1138 28.9501 57.6501 29.279 58.1935 29.1217L63.3843 27.656C63.9277 27.513 64.2781 26.9338 64.1637 26.3833Z" fill="white"></path>
    
  
  <path d="M56.2558 51.0077L57.6286 51.4939L58.4222 51.7728L63.9849 53.7319L65.3577 54.2181C65.8868 54.404 66.5446 54.1466 66.8163 53.6461L69.4117 48.8556C69.6834 48.3551 69.4689 47.7903 68.9398 47.6044L65.9654 46.5533L58.2363 43.8292C57.7072 43.6433 57.1496 43.9364 56.9994 44.4798L55.5694 49.6779C55.4121 50.2212 55.7267 50.8147 56.2558 51.0077Z" fill="white"></path>
    
  
  <path d="M49.8852 22.2649L48.5053 21.793L47.7116 21.5213L42.1275 19.6195L40.7476 19.1476C40.2113 18.9688 39.5607 19.2334 39.2961 19.7339L36.7579 24.5529C36.4934 25.0606 36.7079 25.6183 37.2441 25.8042L40.2328 26.8195L47.9976 29.4578C48.5339 29.6365 49.0844 29.3434 49.2274 28.7928L50.5931 23.5948C50.7361 23.0443 50.4215 22.4508 49.8852 22.2649Z" fill="white"></path>
    
  
  <path d="M41.9774 46.539L42.2705 47.969L42.4421 48.7912L43.629 54.5684L43.9222 55.9984C44.0366 56.5489 44.5943 56.9779 45.1663 56.9565L50.6074 56.7062C51.1794 56.6776 51.5512 56.2057 51.4368 55.6552L50.8004 52.5664L49.1488 44.537C49.0344 43.9865 48.4981 43.6576 47.9547 43.8077L42.7567 45.2592C42.2133 45.4093 41.863 45.9884 41.9774 46.539Z" fill="white"></path>
    
  
  <path d="M39.2246 32.4608L38.1164 33.4117L37.48 33.9623L33.0042 37.8018L31.8959 38.7527C31.4669 39.1174 31.3597 39.8181 31.66 40.3043L34.52 44.9446C34.8203 45.4308 35.4137 45.5309 35.8427 45.1591L38.2379 43.107L44.4584 37.766C44.8874 37.4014 44.9088 36.7722 44.5156 36.3646L40.7261 32.5251C40.3257 32.1176 39.6536 32.089 39.2246 32.4608Z" fill="white"></path>
    
  
  <path d="M66.8234 41.1551L67.9245 40.2042L68.5609 39.6536L73.0367 35.8141L74.145 34.8631C74.574 34.4985 74.6812 33.7978 74.3809 33.3116L71.5209 28.6713C71.2206 28.1851 70.6272 28.085 70.1982 28.4568L67.803 30.5088L61.5825 35.8498C61.1535 36.2145 61.1321 36.8437 61.5253 37.2512L65.3148 41.0907C65.7152 41.4911 66.3944 41.5197 66.8234 41.1551Z" fill="white"></path>
    
  
  <path d="M94.5152 38.8743L93.4284 35.8212H104.875V48.3551C102.831 49.399 99.3629 50.4858 95.5591 50.4858C87.0793 50.4858 81.6882 44.7587 81.6882 36.7364C81.6882 28.2995 87.494 22.2792 96.2312 22.2792C99.4058 22.2792 102.123 23.03 103.874 23.745V27.2127C101.873 26.2117 99.4058 25.461 96.4386 25.461C89.5031 25.461 85.6135 29.9726 85.6135 36.4075C85.6135 43.0927 89.5817 47.3112 95.9309 47.3112C98.0616 47.3112 99.9849 46.8965 101.193 46.3102V38.8743H94.5152Z" fill="white"></path>
    
  
  <path d="M120.048 22.4508H122.679L133.375 50.0711H129.407L126.69 42.8425H116.037L113.405 50.0711H109.523L120.048 22.4508ZM125.56 39.7895L122.972 32.6038C122.178 30.2657 121.764 29.0073 121.428 28.0063H121.342C121.049 29.0073 120.591 30.3015 119.755 32.6467L117.166 39.7895H125.56Z" fill="white"></path>
    
  
  <path d="M138.344 22.5366H142.062V47.0181H152.129V50.0711H138.344V22.5366Z" fill="white"></path>
    
  
  <path d="M157.442 22.5366H171.356L170.269 25.5897H161.16V34.4484H170.14V37.5372H161.16V47.0252H171.52V50.0782H157.442V22.5366Z" fill="white"></path>
    

</svg>