<?xml version="1.0"?>

<svg version="1.1" id="Layer_1" xmlns="http://www.w3.org/2000/svg" xmlns:xlink="http://www.w3.org/1999/xlink" x="0px" y="0px" viewBox="0 0 951.5 135.023" style="enable-background:new 0 0 951.5 135.023;" xml:space="preserve">

<path class="st0" d="M630.9,45.3v20.8h12c6.9,0,11.3-4.1,11.3-10.3s-4.4-10.4-11.3-10.4L630.9,45.3L630.9,45.3z M616.2,33.3h27.9&#xA;&#x9;c15.1,0,25.1,8.8,25.1,22.5c0,8.7-4.6,15.6-11.7,19l13.5,26.1h-16.2l-11.5-22.7H631v22.7h-14.7L616.2,33.3L616.2,33.3z"></path>
<path class="st0" d="M710.5,70.2c-1-6.1-5.2-9.5-11.5-9.5s-10.5,3.6-11.2,9.5H710.5z M673.1,76.1c0-15.5,10.3-25.5,25.8-25.5&#xA;&#x9;c15.6,0,25.2,9.3,25.4,23.8c0,1.5-0.1,3.1-0.4,4.6h-36.5v0.7c0.3,7,4.9,11.3,11.8,11.3c5.6,0,9.5-2.4,10.7-7h13.6&#xA;&#x9;c-1.6,9.7-10.3,17.4-23.7,17.4C683.2,101.4,673.1,91.5,673.1,76.1L673.1,76.1z"></path>
<path class="st0" d="M764.2,51.2H778v49.6h-12.2l-1.3-6c-3.2,3.9-7.6,6.6-14.8,6.6c-10.4,0-20-5.1-20-22.7V51.2h13.8v25.7&#xA;&#x9;c0,8.9,2.9,13.2,9.8,13.2s10.9-4.9,10.9-14.1L764.2,51.2L764.2,51.2L764.2,51.2z"></path>
<path class="st0" d="M786.2,37.3H800v13.9h11.5v11.5H800v21.7c0,3.5,1.4,4.9,4.9,4.9h7.1v11.5h-11.5c-9.6,0-14.4-4.7-14.4-14.2&#xA;&#x9;L786.2,37.3L786.2,37.3z"></path>
<path class="st0" d="M851.7,70.2c-1-6.1-5.2-9.5-11.5-9.5s-10.5,3.6-11.2,9.5H851.7z M814.3,76.1c0-15.5,10.3-25.5,25.8-25.5&#xA;&#x9;c15.6,0,25.2,9.3,25.4,23.8c0,1.5-0.1,3.1-0.4,4.6h-36.5v0.7c0.3,7,4.9,11.3,11.8,11.3c5.6,0,9.5-2.4,10.7-7h13.6&#xA;&#x9;c-1.6,9.7-10.3,17.4-23.7,17.4C824.4,101.4,814.3,91.5,814.3,76.1z"></path>
<path class="st0" d="M902.3,51.2v12.4h-5.5c-8.2,0-11.3,5.4-11.3,12.9v24.3h-13.8V51.2h12.5l1.3,7.4c2.7-4.4,6.6-7.4,14.5-7.4&#xA;&#x9;L902.3,51.2L902.3,51.2z"></path>
<path class="st0" d="M917.6,84.3c0.5,4.3,4.3,7.3,11.1,7.3c5.8,0,9.3-1.8,9.3-5.3c0-4.1-3.4-4.3-11.5-5.4&#xA;&#x9;c-11.7-1.4-20.8-4-20.8-14.2s8.7-16.3,21.6-16.2c13.5,0,22.8,5.9,23.5,16h-13.2c-0.4-4-4.2-6.4-9.8-6.4s-8.9,1.9-8.9,5.1&#xA;&#x9;c0,3.8,4.3,4.2,11.5,5c11.5,1.2,21.1,3.8,21.1,15c0,9.8-9.4,16.1-22.9,16.1s-23.5-6.5-24.1-17.1L917.6,84.3L917.6,84.3L917.6,84.3z"></path>
<polygon class="st0" points="167.9,33.2 222.2,33.2 222.2,45.7 202.3,45.7 202.3,100.8 187.7,100.8 187.7,45.7 167.9,45.7 "></polygon>
<path class="st0" d="M275.5,73.3v27.5h-13.8V74.4c0-8.1-3.3-12.7-10.2-12.7s-11.2,5-11.2,13.5v25.5h-13.8V33.1h13.8v24.1&#xA;&#x9;c3.2-3.9,7.7-6.7,14.9-6.7C266.3,50.6,275.5,56.5,275.5,73.3L275.5,73.3L275.5,73.3z"></path>
<path class="st0" d="M319.8,76c0-8.4-4.8-14.3-12.5-14.3c-7.7,0-12.4,5.9-12.4,14.3s4.7,14.3,12.4,14.3&#xA;&#x9;C315,90.3,319.8,84.4,319.8,76z M280.7,76c0-15.3,10.5-25.4,26.5-25.4s26.5,10.1,26.5,25.4c0,15.3-10.5,25.4-26.5,25.4&#xA;&#x9;S280.7,91.3,280.7,76z"></path>
<path class="st0" d="M418.7,72.3v28.5h-13.8V73.1c0-7.4-2.7-11.3-8.7-11.3s-10,4.3-10,11.9v27.1h-13.8V73.1c0-7.4-2.7-11.3-8.8-11.3&#xA;&#x9;s-9.9,4.5-9.9,12v27h-13.8V51.2h12l1.3,6.2c3-3.9,7.4-6.7,14.8-6.8c6.2-0.1,11.9,2.1,15.1,8.4c3.5-5.3,9.4-8.4,17-8.4&#xA;&#x9;C410.4,50.6,418.6,56.4,418.7,72.3L418.7,72.3z"></path>
<path class="st0" d="M437,84.3c0.5,4.3,4.3,7.3,11.1,7.3c5.8,0,9.3-1.8,9.3-5.3c0-4.1-3.4-4.3-11.6-5.4c-11.7-1.4-20.8-4-20.8-14.2&#xA;&#x9;s8.7-16.3,21.6-16.2c13.5,0,22.8,5.9,23.5,16h-13.2c-0.4-4-4.2-6.4-9.8-6.4s-8.9,1.9-8.9,5.1c0,3.8,4.3,4.2,11.6,5&#xA;&#x9;c11.5,1.2,21.1,3.8,21.1,15c0,9.8-9.4,16.1-22.9,16.1s-23.5-6.5-24.1-17.1L437,84.3L437,84.3L437,84.3z"></path>
<path class="st0" d="M513.3,76c0-8.4-4.8-14.3-12.5-14.3c-7.7,0-12.4,5.9-12.4,14.3s4.7,14.3,12.4,14.3&#xA;&#x9;C508.5,90.3,513.3,84.4,513.3,76z M474.3,76c0-15.3,10.5-25.4,26.5-25.4s26.5,10.1,26.5,25.4c0,15.3-10.5,25.4-26.5,25.4&#xA;&#x9;C484.8,101.4,474.3,91.3,474.3,76z"></path>
<path class="st0" d="M582.4,73.3v27.5h-13.8V74.6c0-8.4-3.2-12.8-10.2-12.8c-6.9,0-11.2,5-11.2,13.6v25.4h-13.8V51.2h12l1.3,6.2&#xA;&#x9;c3.2-3.9,7.8-6.8,15.6-6.8C573.1,50.6,582.4,56.3,582.4,73.3L582.4,73.3z"></path>
<path class="st1" d="M116.9,18.1c1.7,1.7,2.7,4,2.7,6.5s-0.9,4.7-2.7,6.5c-3.6,3.6-9.4,3.6-12.9,0c-1.7-1.7-2.7-4-2.7-6.5&#xA;&#x9;s0.9-4.7,2.7-6.5s4.1-2.7,6.5-2.7C112.8,15.4,115.1,16.3,116.9,18.1z"></path>
<path class="st1" d="M18.1,116.9c-3.6-3.6-3.6-9.4,0-12.9c1.7-1.7,4-2.7,6.5-2.7c2.4,0,4.7,0.9,6.5,2.7c3.6,3.6,3.6,9.4,0,12.9&#xA;&#x9;c-1.7,1.7-4,2.7-6.5,2.7C22.2,119.6,19.9,118.7,18.1,116.9z"></path>
<path class="st1" d="M87.7,18.8L87.7,18.8c-2-0.8-3.5-2.4-4.3-4.3c-0.8-2-0.8-4.1,0-6.1s2.4-3.5,4.3-4.3c1-0.4,2-0.6,3.1-0.6&#xA;&#x9;c1,0,2.1,0.2,3.1,0.6c4.1,1.7,6,6.4,4.3,10.4S91.8,20.5,87.7,18.8z"></path>
<path class="st1" d="M44.3,115.6c1,0,2.1,0.2,3.1,0.6c4.1,1.7,6,6.4,4.3,10.4c-0.8,2-2.4,3.5-4.3,4.3c-2,0.8-4.1,0.8-6.1,0&#xA;&#x9;c-4.1-1.7-6-6.4-4.3-10.4c0.8-2,2.4-3.5,4.3-4.3C42.2,115.8,43.2,115.6,44.3,115.6L44.3,115.6z"></path>
<path class="st1" d="M74.4,6.8c0,3.7-2.9,6.7-6.5,6.8h-0.3c-3.8,0-6.8-3.1-6.8-6.8S63.9,0,67.6,0C71.3,0,74.4,3,74.4,6.8L74.4,6.8z"></path>
<ellipse class="st1" cx="67.489" cy="128.223" rx="6.8" ry="6.8"></ellipse>
<path class="st1" d="M46.5,16.7c-1.4,0.6-3,0.6-4.4,0S39.6,15,39,13.6c-1.2-2.9,0.2-6.3,3.1-7.5c0.7-0.3,1.4-0.4,2.2-0.4&#xA;&#x9;c2.2,0,4.4,1.3,5.3,3.5c0.6,1.4,0.6,3,0,4.4S47.9,16.1,46.5,16.7z"></path>
<path class="st1" d="M88.6,118.3c0.7-0.3,1.5-0.4,2.2-0.4s1.5,0.2,2.2,0.4c1.4,0.6,2.5,1.7,3.1,3.1c0.6,1.4,0.6,3,0,4.4&#xA;&#x9;s-1.7,2.5-3.1,3.1s-3,0.6-4.4,0s-2.5-1.7-3.1-3.1s-0.6-3,0-4.4S87.1,118.9,88.6,118.3z"></path>
<path class="st1" d="M27.8,21.3c1.8,1.8,1.8,4.6,0.1,6.4l-0.1,0.1c-1.8,1.8-4.7,1.8-6.5,0s-1.8-4.7,0-6.5c0.9-0.9,2.1-1.3,3.2-1.3&#xA;&#x9;C25.7,20,26.9,20.5,27.8,21.3L27.8,21.3z"></path>
<path class="st1" d="M107.2,107.2c0.9-0.9,2.1-1.3,3.2-1.3s2.3,0.4,3.2,1.3c0.9,0.9,1.3,2,1.3,3.2s-0.5,2.4-1.3,3.2&#xA;&#x9;c-1.8,1.8-4.7,1.8-6.5,0c-0.9-0.9-1.3-2-1.3-3.2S106.3,108.1,107.2,107.2L107.2,107.2z"></path>
<path class="st1" d="M9.2,49.5c-2.9-1.2-4.3-4.6-3.1-7.5c0.6-1.4,1.7-2.5,3.1-3.1c0.7-0.3,1.5-0.4,2.2-0.4s1.5,0.1,2.2,0.4&#xA;&#x9;c2.9,1.2,4.3,4.6,3.1,7.5c-0.6,1.4-1.7,2.5-3.1,3.1C12.2,50.1,10.6,50.1,9.2,49.5L9.2,49.5z"></path>
<path class="st1" d="M125.8,85.5c1.4,0.6,2.5,1.7,3.1,3.1c0.6,1.4,0.6,3,0,4.4c-1.2,2.9-4.5,4.3-7.5,3.1c-1.4-0.6-2.5-1.7-3.1-3.1&#xA;&#x9;c-0.6-1.4-0.6-3,0-4.4c0.9-2.2,3-3.5,5.3-3.5C124.4,85.1,125.1,85.2,125.8,85.5z"></path>
<circle class="st1" cx="6.8" cy="67.5" r="6.8"></circle>
<ellipse transform="matrix(0.0024 -1 1 0.0024 60.4913 195.639)" class="st1" cx="128.302" cy="67.501" rx="6.8" ry="6.8"></ellipse>
<path class="st1" d="M4,93.8c-1.7-4.1,0.2-8.7,4.3-10.4c2-0.8,4.1-0.8,6.1,0s3.5,2.4,4.3,4.3c0.8,1.9,0.8,4.1,0,6.1&#xA;&#x9;s-2.4,3.5-4.3,4.3c-2,0.8-4.1,0.8-6.1,0C6.3,97.3,4.8,95.8,4,93.8z"></path>
<path class="st1" d="M116.2,47.3c-0.8-2-0.8-4.1,0-6.1s2.4-3.5,4.3-4.3c1-0.4,2-0.6,3-0.6c3.1,0,6.1,1.9,7.4,4.9&#xA;&#x9;c1.7,4.1-0.2,8.7-4.3,10.4c-2,0.8-4.1,0.8-6.1,0C118.6,50.8,117,49.3,116.2,47.3L116.2,47.3z"></path>
<path class="st1" d="M87.2,87.2c-2.4,2.4-2.4,6.2,0,8.6c2.4,2.4,6.2,2.4,8.6,0c1.2-1.2,1.8-2.7,1.8-4.3s-0.6-3.2-1.8-4.3&#xA;&#x9;c-1.2-1.2-2.7-1.8-4.3-1.8S88.4,86,87.2,87.2L87.2,87.2z M87,86.9l0.2,0.2L87,86.9z M87,86.9l0.2,0.2L87,86.9z M87,86.9&#xA;&#x9;c-2.5,2.5-2.5,6.6,0,9.1s6.6,2.5,9.1,0c1.2-1.2,1.9-2.8,1.9-4.5s-0.7-3.3-1.9-4.5c-1.2-1.2-2.9-1.9-4.5-1.9S88.2,85.7,87,86.9&#xA;&#x9;L87,86.9z"></path>
<path class="st1" d="M33.4,63.6c-2.7-0.7-4.3-3.5-3.6-6.2c0.4-1.3,1.2-2.4,2.4-3.1c0.8-0.5,1.7-0.7,2.5-0.7c0.4,0,0.9,0.1,1.3,0.2&#xA;&#x9;c1.3,0.4,2.4,1.2,3.1,2.4s0.9,2.6,0.5,3.9C38.9,62.7,36.1,64.4,33.4,63.6L33.4,63.6z"></path>
<path class="st1" d="M99,81.2c-1.3-0.4-2.4-1.2-3.1-2.4s-0.9-2.6-0.5-3.9c0.4-1.3,1.2-2.4,2.4-3.1c0.8-0.5,1.7-0.7,2.5-0.7&#xA;&#x9;c0.4,0,0.7,0,1.1,0.1l0.2,0.1c2.7,0.7,4.3,3.5,3.6,6.2c-0.4,1.3-1.2,2.4-2.4,3.1C101.6,81.3,100.3,81.5,99,81.2L99,81.2z"></path>
<path class="st1" d="M30.8,77.3c-0.6-2.1,0.6-4.2,2.6-4.9l0.2-0.1c2.2-0.6,4.4,0.7,5,2.9c0.3,1.1,0.1,2.1-0.4,3.1&#xA;&#x9;c-0.5,0.9-1.4,1.6-2.5,1.9c-1.1,0.3-2.1,0.1-3.1-0.4C31.8,79.3,31.1,78.4,30.8,77.3L30.8,77.3z"></path>
<path class="st1" d="M98.2,62.3L98,62.2c-0.8-0.6-1.5-1.4-1.7-2.4c-0.6-2.2,0.7-4.4,2.9-5c2.2-0.6,4.4,0.7,5,2.9s-0.7,4.4-2.9,5&#xA;&#x9;C100.3,63,99.2,62.8,98.2,62.3L98.2,62.3z"></path>
<path class="st1" d="M45.8,93.5L45.8,93.5c-1.3,1.3-3.2,1.3-4.4,0.1c-1.2-1.2-1.2-3.1,0-4.3s3.1-1.2,4.3,0c0.6,0.6,0.9,1.3,0.9,2.2&#xA;&#x9;C46.6,92.2,46.3,92.9,45.8,93.5z"></path>
<path class="st1" d="M93.6,41.3c0.6,0.6,0.9,1.3,0.9,2.2s-0.3,1.6-0.9,2.2c-1.2,1.2-3.1,1.2-4.3,0c-0.6-0.6-0.9-1.3-0.9-2.2&#xA;&#x9;s0.3-1.6,0.9-2.2c0.6-0.6,1.3-0.9,2.2-0.9S93.1,40.8,93.6,41.3L93.6,41.3z"></path>
<path class="st1" d="M62.3,98.2c0.5,0.9,0.7,2,0.4,3.1c-0.3,1.1-1,1.9-1.9,2.5s-2,0.7-3.1,0.4c-2.2-0.6-3.5-2.8-2.9-5&#xA;&#x9;c0.3-1.1,1-1.9,1.9-2.5c0.9-0.5,2-0.7,3.1-0.4C60.8,96.6,61.7,97.3,62.3,98.2L62.3,98.2z"></path>
<path class="st1" d="M72.7,36.8c-0.5-0.9-0.7-2-0.4-3.1c0.3-1.1,1-1.9,1.9-2.5c0.6-0.4,1.3-0.5,2-0.5c0.4,0,0.7,0,1.1,0.1&#xA;&#x9;c1.1,0.3,1.9,1,2.5,1.9c0.5,0.9,0.7,2,0.4,3.1c-0.6,2.2-2.8,3.5-5,2.9C74.2,38.4,73.3,37.8,72.7,36.8z"></path>
<path class="st1" d="M78.9,95.9l0.2,0.1c1.1,0.7,1.8,1.7,2.1,3c0.7,2.7-0.9,5.5-3.6,6.2c-1.3,0.4-2.7,0.2-3.9-0.5&#xA;&#x9;c-1.2-0.7-2-1.8-2.4-3.1s-0.2-2.7,0.5-3.9s1.8-2,3.1-2.4c0.4-0.1,0.9-0.2,1.3-0.2C77.2,95.2,78.1,95.4,78.9,95.9L78.9,95.9z"></path>
<path class="st1" d="M60.1,39.7c-2.7,0.7-5.5-0.9-6.2-3.6c-0.7-2.7,0.9-5.5,3.6-6.2c0.4-0.1,0.9-0.2,1.3-0.2c2.2,0,4.3,1.5,4.9,3.8&#xA;&#x9;C64.4,36.2,62.8,38.9,60.1,39.7z"></path>
<circle class="st1" cx="43.5" cy="43.5" r="6.4"></circle>
</svg>